<?xml version="1.0" encoding="utf-8"?>
<!-- Generator: Adobe Illustrator 15.1.0, SVG Export Plug-In . SVG Version: 6.00 Build 0)  -->
<!DOCTYPE svg PUBLIC "-//W3C//DTD SVG 1.1//EN" "http://www.w3.org/Graphics/SVG/1.1/DTD/svg11.dtd">
<svg version="1.1" id="Ebene_1" xmlns="http://www.w3.org/2000/svg" xmlns:xlink="http://www.w3.org/1999/xlink" x="0px" y="0px"
	 width="294px" height="165.3px" viewBox="0 0 294 165.3" enable-background="new 0 0 294 165.3" xml:space="preserve">
<g>
	<path fill="#F9A900" d="M157,30.5c0,0-9-10.1-18.3-5c-9.3,5-4.4,19.9,3,26.5c7.4,6.7,16.7,16.1,17.9,24c0,0-5.5-11.3-17.9-19.4
		c-12.4-8.1-14.9-20.9-11.7-27.6c3.5-7.2,10.9-7.6,15.9-7C152,22.9,157,30.5,157,30.5L157,30.5z"/>
	<path fill="#F9A900" d="M159.8,28.5c0,0-11.3-15.1-26.2-10.2c-14.9,4.9-16.9,24.9-5.4,35.3c11.5,10.4,20.4,14.4,26.3,22.6
		c5.9,8.2,7.2,12.5,7.2,12.5s-3.8-15.3-16.2-24.7c-12.4-9.5-19.4-20.4-19-28.4c0.4-8,6.3-15.1,13.7-15.3
		C152.4,19.9,159.8,28.5,159.8,28.5L159.8,28.5z"/>
	<path fill="#F9A900" d="M208.7,23c0,0-1.6,11.3-14.8,23.1c-13.2,11.9-31,27.7-30.7,41c0,0,7.3-14.9,19.3-24.2
		c12-9.3,26.3-20.8,26.3-31C208.8,21.7,208.7,23,208.7,23L208.7,23z"/>
	<path fill="#F9A900" d="M191.2,0c-1.7,2.2-3.6,4.4-5.2,6.7c-1.4,2-2.8,4.1-3.8,6.3c-0.8,1.7-2,2.7-3.7,3.5c0-0.3,0-0.5,0.1-0.7
		c0.8-2.1,1.6-4.3,2.4-6.4c0.2-0.5,0.3-1.1,0.4-1.6c-0.1,0-0.2-0.1-0.3-0.1c-0.2,0.3-0.4,0.6-0.5,0.9c-0.8,2-1.6,3.9-2.4,5.9
		c-0.7,1.9-1.4,3.8-2.1,5.6c-0.8,2.1-0.9,4.3-0.4,6.6c2-1.1,3.1-2.8,4-4.7c0.6-1.2,1.1-2.4,1.3-3.7c0.5-2.3,1.5-4.3,2.6-6.3
		c2.1-3.7,4.5-7.3,7.4-10.4c0.3-0.4,0.5-0.9,0.7-1.4C191.5,0.2,191.3,0.1,191.2,0L191.2,0z"/>
	<path fill="#F9A900" d="M170.1,13.2c-1.5,3.8-2.2,7.7-2.4,11.8c-0.1,1.5-0.3,2.9-0.9,4.3c-1.4,3.1-1.1,6.3,1.1,9
		c0.1,0.2,0.3,0.3,0.5,0.5c0.2,0.1,0.4,0.3,0.6,0.4c1.4-1.9,2.3-3.9,1.7-6.3c-0.4-1.6-1.2-3.1-1.8-4.7c-0.2-0.5-0.4-1-0.4-1.5
		c0.1-4.1,0.4-8.1,1.8-12c0.2-0.5,0.1-1.1,0.1-1.6C170.3,13.3,170.2,13.2,170.1,13.2L170.1,13.2z"/>
	<path fill="#F9A900" d="M164.1,23.1c-0.2,2.4-0.5,4.9-0.6,7.3c-0.1,1.4,0.1,2.8,0.1,4.1c0,0.5-0.1,1-0.3,1.5
		c-0.8,2.1-1.3,4.3-0.9,6.6c0.3,1.6,1,2.8,2.5,3.5c0.6,0.3,1,0.2,1.3-0.5c1.7-3.1,1.5-6.1-0.7-8.9c-0.8-1-1.2-2-1.2-3.3
		c0-2.9-0.4-5.7,0.4-8.6c0.2-0.6,0-1.2-0.1-1.8C164.5,23.1,164.3,23.1,164.1,23.1L164.1,23.1z"/>
	<path fill="#F9A900" d="M208.7,4.9c-0.4,0.1-0.8,0.2-1.1,0.3c-6,2-11.7,4.5-16.9,8c-0.4,0.3-1,0.4-1.6,0.4c-3.7,0.5-7,3.1-8,7.8
		c1.4,0,2.5-0.4,3.5-1.2c1.3-1,2.6-2,3.6-3.3c1.8-2.3,4-4,6.5-5.2c4.1-2,8.4-3.7,12.6-5.6c0.5-0.2,1-0.6,1.5-0.9
		C208.8,5.1,208.7,5,208.7,4.9L208.7,4.9z"/>
	<path fill="#F9A900" d="M157.4,41.9c0.1,3.9,0.4,7.7,2.3,11.2c0.4,0.7,0.4,1.4,0.1,2.2c-1.4,3.6,0.4,7.1,4.3,8.8
		c1.4-2.1,1.2-5.7-0.5-7.8c-0.2-0.3-0.5-0.6-0.7-0.8c-3.4-2.8-4.2-6.7-4.5-10.7c-0.1-0.6,0-1.2-0.1-1.8c-0.1-0.4-0.4-0.8-0.5-1.2
		C157.6,41.8,157.5,41.8,157.4,41.9L157.4,41.9z"/>
	<path fill="#F9A900" d="M165.6,63.7c4.1-2.1,6.3-5.1,6.9-9.5c0.1-0.7,0.4-1.4,0.9-2c2.1-2.3,4.3-4.4,7.1-5.8c0.6-0.3,1-0.9,1.4-1.3
		c-0.1-0.1-0.2-0.3-0.3-0.4c-1.4,0.9-2.9,1.7-4.2,2.8c-2,1.7-3.9,3.7-5.9,5.5c-0.7,0.6-1.6,1.1-2.4,1.7
		C166.3,57,165.5,60.1,165.6,63.7L165.6,63.7z"/>
	<path fill="#F9A900" d="M179.1,4.7c-2.7,4.8-4.7,9.8-6.1,15.1c-0.2,1-0.7,2-1.3,2.8c-1.9,2.9-2,6-0.2,8.6c0.1,0.2,0.3,0.3,0.5,0.6
		c1.2-1.2,2.1-2.5,2.2-4.1c0.1-2.2-0.1-4.4-0.2-6.6c0-0.6-0.1-1.3,0.1-1.9c1.2-4.5,2.8-8.8,5-12.8c0.3-0.5,0.3-1.1,0.4-1.6
		C179.4,4.8,179.2,4.8,179.1,4.7L179.1,4.7z"/>
	<path fill="#F9A900" d="M164.9,55.2c0.3-1.6,0.7-3.1,0.9-4.6c0.2-1.3-0.5-2.5-1.5-3.3c-2.7-2.3-3.5-5.4-3.6-8.7
		c0-1.6,0.2-3.1,0.3-4.7c0-0.6-0.2-1.1-0.5-1.7c-0.7,4.1-1.1,8.2,0.6,12.1c0.3,0.8,0.3,1.3,0.1,2.1
		C159.8,50.1,161.2,53.4,164.9,55.2L164.9,55.2z"/>
	<path fill="#F9A900" d="M165.9,55.3c2.6-0.6,4.4-2.1,5.7-4.2c0.4-0.6,0.8-1.2,1-1.9c0.3-1.6,1.5-2.6,2.6-3.6
		c2.5-2.1,5.2-3.9,8.4-4.8c0.4-0.1,0.8-0.6,1.2-0.9c-0.1-0.1-0.1-0.2-0.2-0.3c-1.2,0.4-2.4,0.8-3.6,1.3c-2.7,1.1-5,2.9-7.2,4.7
		c-0.3,0.3-0.7,0.6-1.1,0.6C168.7,47.1,166,49.7,165.9,55.3L165.9,55.3z"/>
	<path fill="#F9A900" d="M196.6,25.3c-0.3,0-0.6-0.1-0.9,0c-4.3,0.3-8.5,1-12.5,2.5c-0.4,0.2-1,0.2-1.5,0c-2.8-1-4.9-0.5-6.8,1.7
		c-0.8,1-1.5,2.1-2.5,3.4c3.6-0.2,6.6-0.7,9.1-3.1c0.6-0.5,1.3-1,2-1.3c3.7-1.3,7.5-2.2,11.4-2.3c0.5,0,1.1-0.3,1.6-0.5
		C196.6,25.6,196.6,25.5,196.6,25.3L196.6,25.3z"/>
	<path fill="#F9A900" d="M191.9,30.7c-3.5,0-6.8,0.7-10,2c-0.7,0.3-1.4,0.7-2.1,1c-0.4,0.2-0.9,0.3-1.4,0.2c-3-0.6-5.3,0.4-6.9,3
		c-0.6,1-1.2,2.1-1.7,3.2c3.5-0.6,6.7-1.6,9-4.5c0.6-0.8,1.6-1.3,2.6-1.7c2.9-1.2,5.9-2,9-2.3c0.6,0,1.1-0.3,1.7-0.5
		C192,30.9,191.9,30.8,191.9,30.7L191.9,30.7z"/>
	<path fill="#F9A900" d="M177.9,26.1c2.9,0.8,5.7,0.4,7.8-1.9c2.6-2.8,6-3.6,9.5-4.2c1.9-0.3,3.9-0.4,5.8-0.6
		c0.5-0.1,0.9-0.3,1.3-0.5c0-0.2-0.1-0.3-0.1-0.5c-1.7,0.1-3.4,0.1-5.1,0.4c-2.9,0.6-5.8,1.4-8.7,2c-0.6,0.1-1.2,0.2-1.7,0.2
		C183.4,20.9,179.4,23.2,177.9,26.1L177.9,26.1z"/>
	<path fill="#F9A900" d="M187.6,35.7c-1.6,0.4-3.3,0.6-4.9,1.1c-1.7,0.5-3.4,1.2-5,2c-1.6,0.8-3.2,1.3-5,1.6c-1,0.1-2,0.9-2.8,1.6
		c-1.6,1.4-2.4,3.3-3.1,5.5c3.6-1.3,6.8-2.8,8.8-6.1c0.3-0.5,0.7-0.9,1.1-1.1c3-1.7,6.2-3,9.7-3.3c0.5,0,0.9-0.5,1.3-0.8
		C187.8,36,187.7,35.8,187.6,35.7L187.6,35.7z"/>
	<path fill="#F9A900" d="M186.6,19.9c0.6-0.1,1.2-0.2,1.7-0.5c5.8-2.7,11.8-5,18.2-6.4c0.4-0.1,0.8-0.5,1.1-0.9
		c-7.4,1.4-14.5,3.9-21.1,7.4C186.5,19.6,186.5,19.8,186.6,19.9L186.6,19.9z"/>
	<path fill="#F9A900" d="M182.3,16.3c2.6-2.7,4.9-5.4,7.5-7.7c2-1.8,4.5-3.1,6.7-4.7c0.5-0.3,0.8-0.8,1.3-1.2
		c-0.1-0.1-0.2-0.2-0.3-0.4c-1.7,1.1-3.4,2.1-5.1,3.2c-3.5,2.5-6.6,5.4-9.2,8.8C182.8,14.8,182.7,15.5,182.3,16.3L182.3,16.3z"/>
	<path fill="#F9A900" d="M194,23c-4.2,0.8-8.3,2.1-12.2,4.1c0,0.1,0,0.2,0.1,0.3c0.6-0.1,1.2-0.2,1.7-0.3c3.1-1,6.1-1.9,9.1-2.9
		c0.5-0.2,0.9-0.6,1.4-0.8C194.1,23.2,194,23.1,194,23L194,23z"/>
	<path fill="#F9A900" d="M179.4,49.8c-3,2.6-6.1,5.2-7.8,9.2c2-2.3,3.9-4.4,5.8-6.4c0.5-0.5,1.2-0.9,1.7-1.5
		c0.3-0.3,0.4-0.7,0.7-1.1C179.6,49.9,179.5,49.8,179.4,49.8L179.4,49.8z"/>
	<path fill="#F9A900" d="M159.5,60.7c-0.3-0.8-0.3-1.5-0.6-2c-1.3-1.8-1.8-3.9-2.3-6c-0.2-0.6-0.6-1.2-1-1.7
		C155.4,53.5,157.5,58.7,159.5,60.7L159.5,60.7z"/>
	<path fill="#A10863" d="M243.2,111.5c-2.4,10.6,3.5,13.8,13.3,7.7c3.9-2.3,6.6-5.7,10.7-10.6h-1.9c-2.9,3.6-3.4,5.1-6.5,7.4
		c-25,18.8-0.3-28.8,3.3-32.9c6-6.9,42.3-47.6,28.9-48.7c-21.2,3.3-31.8,42.7-43.9,66.8c-1.3,2.7-2.3,5.1-3.1,7.2 M286.1,51.8
		c-5.5,8-18,24.3-26,29.7c2.1-2.9,13.5-41.6,28.4-44.3C297,35.6,287.5,49.3,286.1,51.8L286.1,51.8z M214.3,112.5
		c-0.2,1.5-0.1,3.1,0.3,4.6c1,3.6,3.8,5.3,8.6,5.3c8.3,0,14.5-5.1,20.1-10.9c0.2-0.9,0.5-1.9,0.8-3h-0.2
		c-4.6,5.3-9.3,11.3-16.6,11.3c-4.2,0-8.8-3.4-8.1-7.1c4.4-2.4,15.9-7,18.6-12c3.1-5.8-4.7-5.9-8-4.9c-6.2,2.2-12.3,7.3-14.6,13.3
		 M219.7,110.4l0.6-1.6c1.4-4,5.1-8.2,9-10.1c5.5-2.6,7,2.2,2.6,5.7C229.9,106.1,224.8,107.8,219.7,110.4L219.7,110.4z M182.1,110.8
		c3.8-4.3,5.2-10.3,6.8-13.5c2.6,1.5,7.9,2.9,12.8,0.4c-4.6,5.4-8.5,11-12.1,16.8c-6.8,2.6-8.3,7.9-5.3,7.9c3.4,0,6-6.1,9.2-7.6
		c4.2-1.7,7.8,2.6,9.7,6c-17.5,9.6-58.4,77.7-33.1,78.9c27.3,1.3,47.7-52.5,37.2-80.3c2.8-2.3,4.9-4.5,6.9-6.8
		c0.1-1.1,0.4-2.2,0.8-3.3c-3,3.7-5,5.5-8.6,8.9c-3.5-3.4-6.5-4.8-13.1-4.8c2.1-2.3,5.3-7.3,11.1-15.9c1.7-0.6,3.5-1.5,3.2-2.9
		c-1.1-1.1-3.6,1.3-4.3,1.9c-2.9,0.2-11.5,2.8-11.6-1.9c0-1.3,0.1-2.3,0.1-3.4c-0.5-1.8-1.5-2.7-3.4-2.7c-2.5,0-4.2,3.2-3.5,5.3
		c0.3,1,0.7,1.8,2.2,2.9c-1.6,3.1-2.1,6.8-5.9,12.2 M201.7,166c-3.7,12.3-14.3,31.3-30.3,31.3c-24.5,0,20.1-74,32.6-74.4
		C208.8,138.6,205.6,153.9,201.7,166L201.7,166z M140.3,112.2l-4,10.2h3.7c3.1-7.6,7.2-14.6,13.2-19.4c2.2-1.7,17-12.7,13.4-2
		c-1.7,5.1-12.9,20.5-3.4,21.5c6,0.6,12.9-3.5,18.8-11.6c-0.1-0.7-0.3-1-0.3-1l-0.5-0.9c0-0.1,0.1-0.1,0.1-0.2
		c-2.5,3.3-8.9,11.8-15.2,11.8c-9.6,0,11.1-25.5-1.5-25.5c-4.1,0-9.1,3.9-17.6,12.3l3.8-12.2h-3.9l-5.2,13.4 M140.3,112.2l1.4-3.6
		h-0.2c-3.9,4.8-9.1,11.4-15.6,11.4c-6.9,0-5.3-3.8,5.8-24.9h-4.6c-3.6,7.5-6.7,16-13,21.5c-10.5,8.9-17.1,4.6-10.5-8.7
		c0.3-0.5,0.5-1,0.8-1.5c1.8-3.3,4.3-7.1,7.7-11.3h-4.8c-3.6,6.6-6,11.8-7.5,15.8c-3.4,4.1-7.8,7.3-12.2,8.4
		c-31.8,7.7-1.9-41.4,5.7-51.6c1.9-2.7,15.6-23,7.4-23c-4.7,0-15.2,13-18.3,16.7c-6.7,8.2-38.5,58.3-44.3,58.3c-1.9,0,1.6-6,1.8-6.5
		c7.4-14.7,16.2-26.7,33-49.7c3.6-4.5,8.3-9.7,9.7-15.2c1.8-6.7-5.6-3.2-8-1.4c-27.1,18-41.4,58.8-70.6,72c0,0-6.5,6.8,3.4,2.5
		c30.2-13.5,45.9-58.7,71.4-75.7c4.7-2.3-1,6-7.1,13.4c-4,5.2-45.4,62-34.5,62c10.8,0,51.4-66.1,58.3-71.9
		c13.6-11.7-11.9,24.5-14.7,28.5c-7.3,10.5-20.5,31.4-9.3,41.8c7.9,7.2,19.5,3.4,27.3-4.9c-1.3,5.6,0.5,7.9,5.1,7.8
		c5.7-0.1,9.5-3.3,13.2-6.7c-0.3,4.5,0.4,6.7,5.4,6.7C129.1,122.4,135.4,117.3,140.3,112.2L140.3,112.2z M133.5,81.5
		c0-1.8-1.5-3.3-3.3-3.3s-3.3,1.4-3.3,3.3s1.5,3.3,3.3,3.3S133.5,83.4,133.5,81.5L133.5,81.5z M121.9,81.5c0-1.8-1.5-3.3-3.3-3.3
		s-3.3,1.4-3.3,3.3s1.5,3.3,3.3,3.3S121.9,83.4,121.9,81.5L121.9,81.5z"/>
	<path fill="none" stroke="#A10863" stroke-width="1.7475" stroke-miterlimit="10" d="M243.2,111.5c-2.4,10.6,3.5,13.8,13.3,7.7
		c3.9-2.3,6.6-5.7,10.7-10.6h-1.9c-2.9,3.6-3.4,5.1-6.5,7.4c-25,18.8-0.3-28.8,3.3-32.9c6-6.9,42.3-47.6,28.9-48.7
		c-21.2,3.3-31.8,42.7-43.9,66.8c-1.3,2.7-2.3,5.1-3.1,7.2 M286.1,51.8c-5.5,8-18,24.3-26,29.7c2.1-2.9,13.5-41.6,28.4-44.3
		C297,35.6,287.5,49.3,286.1,51.8L286.1,51.8z M214.3,112.5c-0.2,1.5-0.1,3.1,0.3,4.6c1,3.6,3.8,5.3,8.6,5.3
		c8.3,0,14.5-5.1,20.1-10.9c0.2-0.9,0.5-1.9,0.8-3h-0.2c-4.6,5.3-9.3,11.3-16.6,11.3c-4.2,0-8.8-3.4-8.1-7.1c4.4-2.4,15.9-7,18.6-12
		c3.1-5.8-4.7-5.9-8-4.9c-6.2,2.2-12.3,7.3-14.6,13.3 M219.7,110.4l0.6-1.6c1.4-4,5.1-8.2,9-10.1c5.5-2.6,7,2.2,2.6,5.7
		C229.9,106.1,224.8,107.8,219.7,110.4L219.7,110.4z M182.1,110.8c3.8-4.3,5.2-10.3,6.8-13.5c2.6,1.5,7.9,2.9,12.8,0.4
		c-4.6,5.4-8.5,11-12.1,16.8c-6.8,2.6-8.3,7.9-5.3,7.9c3.4,0,6-6.1,9.2-7.6c4.2-1.7,7.8,2.6,9.7,6c-17.5,9.6-58.4,77.7-33.1,78.9
		c27.3,1.3,47.7-52.5,37.2-80.3c2.8-2.3,4.9-4.5,6.9-6.8c0.1-1.1,0.4-2.2,0.8-3.3c-3,3.7-5,5.5-8.6,8.9c-3.5-3.4-6.5-4.8-13.1-4.8
		c2.1-2.3,5.3-7.3,11.1-15.9c1.7-0.6,3.5-1.5,3.2-2.9c-1.1-1.1-3.6,1.3-4.3,1.9c-2.9,0.2-11.5,2.8-11.6-1.9c0-1.3,0.1-2.3,0.1-3.4
		c-0.5-1.8-1.5-2.7-3.4-2.7c-2.5,0-4.2,3.2-3.5,5.3c0.3,1,0.7,1.8,2.2,2.9c-1.6,3.1-2.1,6.8-5.9,12.2 M201.7,166
		c-3.7,12.3-14.3,31.3-30.3,31.3c-24.5,0,20.1-74,32.6-74.4C208.8,138.6,205.6,153.9,201.7,166L201.7,166z M140.3,112.2l-4,10.2h3.7
		c3.1-7.6,7.2-14.6,13.2-19.4c2.2-1.7,17-12.7,13.4-2c-1.7,5.1-12.9,20.5-3.4,21.5c6,0.6,12.9-3.5,18.8-11.6c-0.1-0.7-0.3-1-0.3-1
		l-0.5-0.9c0-0.1,0.1-0.1,0.1-0.2c-2.5,3.3-8.9,11.8-15.2,11.8c-9.6,0,11.1-25.5-1.5-25.5c-4.1,0-9.1,3.9-17.6,12.3l3.8-12.2h-3.9
		l-5.2,13.4 M140.3,112.2l1.4-3.6h-0.2c-3.9,4.8-9.1,11.4-15.6,11.4c-6.9,0-5.3-3.8,5.8-24.9h-4.6c-3.6,7.5-6.7,16-13,21.5
		c-10.5,8.9-17.1,4.6-10.5-8.7c0.3-0.5,0.5-1,0.8-1.5c1.8-3.3,4.3-7.1,7.7-11.3h-4.8c-3.6,6.6-6,11.8-7.5,15.8
		c-3.4,4.1-7.8,7.3-12.2,8.4c-31.8,7.7-1.9-41.4,5.7-51.6c1.9-2.7,15.6-23,7.4-23c-4.7,0-15.2,13-18.3,16.7
		c-6.7,8.2-38.5,58.3-44.3,58.3c-1.9,0,1.6-6,1.8-6.5c7.4-14.7,16.2-26.7,33-49.7c3.6-4.5,8.3-9.7,9.7-15.2c1.8-6.7-5.6-3.2-8-1.4
		c-27.1,18-41.4,58.8-70.6,72c0,0-6.5,6.8,3.4,2.5c30.2-13.5,45.9-58.7,71.4-75.7c4.7-2.3-1,6-7.1,13.4c-4,5.2-45.4,62-34.5,62
		c10.8,0,51.4-66.1,58.3-71.9c13.6-11.7-11.9,24.5-14.7,28.5c-7.3,10.5-20.5,31.4-9.3,41.8c7.9,7.2,19.5,3.4,27.3-4.9
		c-1.3,5.6,0.5,7.9,5.1,7.8c5.7-0.1,9.5-3.3,13.2-6.7c-0.3,4.5,0.4,6.7,5.4,6.7C129.1,122.4,135.4,117.3,140.3,112.2L140.3,112.2z
		 M133.5,81.5c0-1.8-1.5-3.3-3.3-3.3s-3.3,1.4-3.3,3.3s1.5,3.3,3.3,3.3S133.5,83.4,133.5,81.5L133.5,81.5z M121.9,81.5
		c0-1.8-1.5-3.3-3.3-3.3s-3.3,1.4-3.3,3.3s1.5,3.3,3.3,3.3S121.9,83.4,121.9,81.5L121.9,81.5z"/>
	<path fill="#77797C" d="M83,153.1h7.3v-1.2h-5.6l5.6-7.3v-1.2h-7.1v1.2h5.4l-5.6,7.3V153.1L83,153.1z M91.8,143.3v6.2
		c0,0.6,0.1,1.1,0.3,1.6c0.2,0.5,0.5,0.9,0.8,1.2c0.3,0.3,0.7,0.6,1.2,0.8c0.5,0.2,1,0.3,1.5,0.3c0.5,0,1-0.1,1.5-0.3
		c0.5-0.2,0.9-0.4,1.2-0.8c0.3-0.3,0.6-0.7,0.8-1.2c0.2-0.5,0.3-1,0.3-1.6v-6.2h-1.3v6c0,0.3,0,0.6-0.1,1c-0.1,0.3-0.2,0.6-0.4,0.9
		c-0.2,0.3-0.4,0.5-0.8,0.7c-0.3,0.2-0.7,0.3-1.2,0.3s-0.9-0.1-1.2-0.3s-0.6-0.4-0.8-0.7c-0.2-0.3-0.3-0.6-0.4-0.9
		c-0.1-0.3-0.1-0.6-0.1-1v-6H91.8L91.8,143.3z M101.7,153.1h1.3V145h0l3.3,8.1h0.9l3.3-8.1h0v8.1h1.3v-9.8h-2l-3.1,7.4h-0.1
		l-3.1-7.4h-2V153.1L101.7,153.1z M118.2,153.1h3.4c0.5,0,0.9-0.1,1.3-0.2c0.4-0.1,0.8-0.3,1.1-0.5c0.3-0.2,0.6-0.5,0.7-0.9
		c0.2-0.3,0.3-0.7,0.3-1.2c0-0.3-0.1-0.6-0.2-0.9c-0.1-0.3-0.3-0.5-0.5-0.8c-0.2-0.2-0.4-0.4-0.7-0.5c-0.3-0.1-0.5-0.2-0.8-0.2v0
		c0.5-0.2,0.9-0.4,1.2-0.8s0.5-0.8,0.5-1.4c0-0.4-0.1-0.8-0.2-1.1c-0.2-0.3-0.4-0.6-0.6-0.8c-0.3-0.2-0.6-0.3-0.9-0.5
		c-0.4-0.1-0.8-0.2-1.2-0.2h-3.4V153.1L118.2,153.1z M119.6,144.5h2.1c0.5,0,0.9,0.1,1.2,0.4c0.2,0.3,0.4,0.6,0.4,1
		c0,0.3,0,0.5-0.1,0.7c-0.1,0.2-0.2,0.3-0.4,0.5c-0.2,0.1-0.4,0.2-0.6,0.3c-0.2,0.1-0.5,0.1-0.7,0.1h-1.8V144.5L119.6,144.5z
		 M119.6,148.5h2c0.6,0,1.2,0.1,1.5,0.4c0.4,0.3,0.6,0.7,0.6,1.3c0,0.4-0.1,0.6-0.2,0.8c-0.1,0.2-0.3,0.4-0.5,0.5
		c-0.2,0.1-0.4,0.2-0.7,0.3c-0.2,0-0.5,0.1-0.7,0.1h-2V148.5L119.6,148.5z M125.7,153.1h1.6l1-2.4h4.7l1,2.4h1.6l-4.2-9.8H130
		L125.7,153.1L125.7,153.1z M128.7,149.5l1.9-4.5h0l1.8,4.5H128.7L128.7,149.5z M144.7,144.6c-0.4-0.5-0.9-0.9-1.5-1.2
		s-1.3-0.4-1.9-0.4c-0.8,0-1.5,0.1-2.1,0.4c-0.6,0.3-1.2,0.6-1.6,1.1c-0.4,0.5-0.8,1-1,1.7c-0.2,0.6-0.4,1.3-0.4,2.1
		c0,0.6,0.1,1.2,0.3,1.8c0.2,0.6,0.6,1.2,1,1.6c0.4,0.5,1,0.9,1.6,1.2s1.3,0.4,2.1,0.4c0.6,0,1.1-0.1,1.5-0.2
		c0.4-0.1,0.8-0.3,1.1-0.5s0.6-0.4,0.7-0.6c0.2-0.2,0.3-0.3,0.4-0.4l-1.1-0.8c-0.3,0.4-0.7,0.7-1.1,1c-0.4,0.2-0.9,0.3-1.5,0.3
		c-0.6,0-1.1-0.1-1.5-0.3c-0.5-0.2-0.8-0.5-1.2-0.8c-0.3-0.4-0.6-0.8-0.7-1.2c-0.2-0.5-0.2-1-0.2-1.5c0-0.6,0.1-1.1,0.3-1.6
		c0.2-0.5,0.4-0.9,0.7-1.3c0.3-0.4,0.7-0.6,1.2-0.9c0.4-0.2,1-0.3,1.5-0.3c0.5,0,0.9,0.1,1.3,0.3c0.4,0.2,0.8,0.5,1.1,0.8
		L144.7,144.6L144.7,144.6z M146.5,153.1h1.3v-4.9h0.1l4.6,4.9h1.9l-5.1-5.3l4.7-4.5h-1.9l-4.3,4.2h-0.1v-4.2h-1.3V153.1
		L146.5,153.1z M155.5,153.1h6.6v-1.2h-5.3v-3.2h4.7v-1.2h-4.7v-2.9h5v-1.2h-6.3V153.1L155.5,153.1z M164,153.1h1.3V145h0l5.5,8.1
		h1.7v-9.8h-1.3v8.1h0l-5.4-8.1H164V153.1L164,153.1z"/>
	<path fill="#77797C" d="M0,153.1h1.6l1-2.4h4.7l1,2.4h1.6l-4.2-9.8H4.3L0,153.1L0,153.1z M3,149.5l1.9-4.5h0l1.8,4.5H3L3,149.5z
		 M10.8,143.3v6.2c0,0.6,0.1,1.1,0.3,1.6c0.2,0.5,0.5,0.9,0.8,1.2c0.3,0.3,0.7,0.6,1.2,0.8c0.5,0.2,1,0.3,1.5,0.3s1-0.1,1.5-0.3
		c0.5-0.2,0.9-0.4,1.2-0.8c0.3-0.3,0.6-0.7,0.8-1.2c0.2-0.5,0.3-1,0.3-1.6v-6.2h-1.3v6c0,0.3,0,0.6-0.1,1c-0.1,0.3-0.2,0.6-0.4,0.9
		c-0.2,0.3-0.4,0.5-0.8,0.7c-0.3,0.2-0.7,0.3-1.2,0.3s-0.9-0.1-1.2-0.3s-0.6-0.4-0.8-0.7c-0.2-0.3-0.3-0.6-0.4-0.9
		c-0.1-0.3-0.1-0.6-0.1-1v-6H10.8L10.8,143.3z M20,152c0.3,0.5,0.8,0.8,1.3,1c0.6,0.2,1.2,0.3,1.8,0.3c0.5,0,0.9-0.1,1.3-0.2
		c0.4-0.1,0.8-0.3,1.1-0.6c0.3-0.3,0.5-0.6,0.7-1c0.2-0.4,0.3-0.8,0.3-1.3c0-0.6-0.1-1.1-0.4-1.4c-0.2-0.3-0.5-0.6-0.9-0.8
		c-0.4-0.2-0.7-0.4-1.2-0.5c-0.4-0.1-0.8-0.2-1.2-0.4c-0.4-0.1-0.7-0.3-0.9-0.5c-0.2-0.2-0.4-0.5-0.4-1c0-0.1,0-0.3,0.1-0.5
		c0.1-0.2,0.2-0.3,0.3-0.5c0.1-0.2,0.3-0.3,0.6-0.4c0.2-0.1,0.6-0.1,0.9-0.1c0.4,0,0.7,0.1,1,0.2c0.3,0.2,0.5,0.4,0.7,0.6l1.1-1
		c-0.4-0.5-0.8-0.8-1.3-0.9c-0.5-0.1-1-0.2-1.5-0.2c-0.6,0-1.1,0.1-1.5,0.3c-0.4,0.2-0.8,0.4-1,0.7c-0.3,0.3-0.5,0.6-0.6,0.9
		c-0.1,0.3-0.2,0.6-0.2,0.9c0,0.6,0.1,1.1,0.4,1.5c0.2,0.4,0.5,0.7,0.9,0.9c0.4,0.2,0.7,0.4,1.2,0.5c0.4,0.1,0.8,0.3,1.2,0.4
		c0.4,0.1,0.7,0.3,0.9,0.5s0.4,0.5,0.4,0.9c0,0.3-0.1,0.5-0.2,0.7c-0.1,0.2-0.3,0.4-0.5,0.5c-0.2,0.1-0.4,0.2-0.6,0.3
		c-0.2,0.1-0.5,0.1-0.7,0.1c-0.4,0-0.8-0.1-1.2-0.3c-0.4-0.2-0.7-0.4-0.9-0.8L20,152L20,152z"/>
	<path fill="#A50165" d="M71,150.3c-0.1,0.4,0,0.9,0.1,1.3c0.3,1,1,1.4,2.3,1.4c2.6,0,4.4-1.9,6.1-3.7h-0.6c-1.2,1.4-2.5,3-4.5,3
		c-1.1,0-2.4-0.9-2.2-1.9c1.2-0.6,4.2-1.9,5-3.2c0.8-1.6-1.3-1.6-2.1-1.3c-1.8,0.6-3.5,2.1-4,3.9 M72.4,149.9l0.2-0.4
		c0.4-1.1,1.4-2.2,2.4-2.7c1.5-0.7,1.9,0.6,0.7,1.5C75.1,148.7,73.8,149.2,72.4,149.9L72.4,149.9z M61.1,150.4
		c-0.1,1.5,0.8,2.4,2.1,2.7c2,0.5,3.8-1.5,4.7-3.2c1.2,1.4,2.2,1.2,3.1,0.4c0-0.2,0.1-0.4,0.1-0.5c-0.7,1-2.1,1.4-2.6-0.2
		c-0.2-0.7,0.5-1.4,0.5-2.1c0-0.7-0.3-1.6-1.1-1.6c-0.3,0-1.2,0-0.6,2l0.2,0.7c0.3,2-4.1,5.5-4.9,2.9c-0.6-2.2,1.9-6.8,2.8-8.5
		c0.1-0.3,0.4-0.5,3.2-3c2.4-1.9,4.2-3.7,5.4-5.4c0.9-1.2,2.1-4.9,0.1-4.9c-2.4,0-4.9,4.5-6,6.2c-2.2,3.4-3.3,6.1-5.4,10.2l-1.2,2.7
		c-0.1,0.3-0.2,0.6-0.3,0.9 M65.6,142l6-10.1c0.5-1,2.5-2.4,2.8-0.8C75.5,134.6,67.7,140.2,65.6,142L65.6,142z M53.6,150.3
		c-0.1,0.5-0.1,0.9,0.1,1.4c0.3,1,1,1.4,2.3,1.4c2.1,0,3.7-1.2,5.2-2.7c0-0.2,0-0.4,0.1-0.7c-1.1,1.3-2.4,2.7-4.2,2.7
		c-1.1,0-2.4-0.9-2.2-1.9c1.2-0.6,4.2-1.9,5-3.2c0.8-1.6-1.3-1.6-2.1-1.3c-1.7,0.6-3.3,2-3.9,3.7 M55.1,149.9l0.2-0.4
		c0.4-1.1,1.4-2.2,2.4-2.7c1.5-0.7,1.9,0.6,0.7,1.5C57.8,148.7,56.4,149.2,55.1,149.9L55.1,149.9z M53.7,150.3
		c0-0.2,0.1-0.5,0.2-0.7c-0.6,0.7-1,1.1-1.8,1.7c-1.1,0.8-3.3,2.1-3.3,0.2c0-0.3,0.6-2.7,2.5-5.6h-1.3l-2.1,3.9
		c-0.3,0.7-0.4,1.3-0.5,1.8c-1.2,1.1-3,1.4-4.5,1.4c-1.7,0-3.2-0.4-4.7-0.8c2.9-1.8,5-4.3,7.2-9.8c2.4-0.1,10.4-2.4,9.9-6
		c-0.3-1.1-1.3-1.5-2.4-1.5c-3.9,0-7,4.6-8.8,7.4c-3.1-0.1-7.9-1.4-6.9-5.1c0-0.7,0.3-1.3,0.7-1.8c-0.6,0.4-1.1,0.9-1.4,1.7
		c-1.2,4,4.7,5.8,7.5,5.5c-1.9,3.2-3.5,8.1-6.5,9.4c-2.7-1.1-8.7-1.5-8.4,0.2c0.2,1.1,3.1,1.1,3.8,1.1c1.6,0,3.4-0.2,4.7-0.9
		c1.8,0.5,3.3,1,4.8,1c1.9,0,3.6-0.4,5.1-1.4c0.1,0.7,0.6,1.1,1.6,1.1C50.5,153.1,52.4,151.5,53.7,150.3L53.7,150.3z M37,152.3
		c-1.2,0.5-2.7,0.8-4.3,0.8c-1.9,0-3-0.3-3.1-0.9c-0.1-0.8,1.8-0.8,2.3-0.8C33.6,151.4,35.2,151.7,37,152.3L37,152.3z M45.3,142.1
		c1-2.4,2.6-5,4.9-6.2c1.1-0.7,4.1-1.2,4.3,0.4C55,139.9,47.4,141.5,45.3,142.1L45.3,142.1z"/>
	<path fill="none" stroke="#A10863" stroke-width="0.5" d="M71,150.3c-0.1,0.4,0,0.9,0.1,1.3c0.3,1,1,1.4,2.3,1.4
		c2.6,0,4.4-1.9,6.1-3.7h-0.6c-1.2,1.4-2.5,3-4.5,3c-1.1,0-2.4-0.9-2.2-1.9c1.2-0.6,4.2-1.9,5-3.2c0.8-1.6-1.3-1.6-2.1-1.3
		c-1.8,0.6-3.5,2.1-4,3.9 M72.4,149.9l0.2-0.4c0.4-1.1,1.4-2.2,2.4-2.7c1.5-0.7,1.9,0.6,0.7,1.5C75.1,148.7,73.8,149.2,72.4,149.9
		L72.4,149.9z M61.1,150.4c-0.1,1.5,0.8,2.4,2.1,2.7c2,0.5,3.8-1.5,4.7-3.2c1.2,1.4,2.2,1.2,3.1,0.4c0-0.2,0.1-0.4,0.1-0.5
		c-0.7,1-2.1,1.4-2.6-0.2c-0.2-0.7,0.5-1.4,0.5-2.1c0-0.7-0.3-1.6-1.1-1.6c-0.3,0-1.2,0-0.6,2l0.2,0.7c0.3,2-4.1,5.5-4.9,2.9
		c-0.6-2.2,1.9-6.8,2.8-8.5c0.1-0.3,0.4-0.5,3.2-3c2.4-1.9,4.2-3.7,5.4-5.4c0.9-1.2,2.1-4.9,0.1-4.9c-2.4,0-4.9,4.5-6,6.2
		c-2.2,3.4-3.3,6.1-5.4,10.2l-1.2,2.7c-0.1,0.3-0.2,0.6-0.3,0.9 M65.6,142l6-10.1c0.5-1,2.5-2.4,2.8-0.8
		C75.5,134.6,67.7,140.2,65.6,142L65.6,142z M53.6,150.3c-0.1,0.5-0.1,0.9,0.1,1.4c0.3,1,1,1.4,2.3,1.4c2.1,0,3.7-1.2,5.2-2.7
		c0-0.2,0-0.4,0.1-0.7c-1.1,1.3-2.4,2.7-4.2,2.7c-1.1,0-2.4-0.9-2.2-1.9c1.2-0.6,4.2-1.9,5-3.2c0.8-1.6-1.3-1.6-2.1-1.3
		c-1.7,0.6-3.3,2-3.9,3.7 M55.1,149.9l0.2-0.4c0.4-1.1,1.4-2.2,2.4-2.7c1.5-0.7,1.9,0.6,0.7,1.5C57.8,148.7,56.4,149.2,55.1,149.9
		L55.1,149.9z M53.7,150.3c0-0.2,0.1-0.5,0.2-0.7c-0.6,0.7-1,1.1-1.8,1.7c-1.1,0.8-3.3,2.1-3.3,0.2c0-0.3,0.6-2.7,2.5-5.6h-1.3
		l-2.1,3.9c-0.3,0.7-0.4,1.3-0.5,1.8c-1.2,1.1-3,1.4-4.5,1.4c-1.7,0-3.2-0.4-4.7-0.8c2.9-1.8,5-4.3,7.2-9.8c2.4-0.1,10.4-2.4,9.9-6
		c-0.3-1.1-1.3-1.5-2.4-1.5c-3.9,0-7,4.6-8.8,7.4c-3.1-0.1-7.9-1.4-6.9-5.1c0-0.7,0.3-1.3,0.7-1.8c-0.6,0.4-1.1,0.9-1.4,1.7
		c-1.2,4,4.7,5.8,7.5,5.5c-1.9,3.2-3.5,8.1-6.5,9.4c-2.7-1.1-8.7-1.5-8.4,0.2c0.2,1.1,3.1,1.1,3.8,1.1c1.6,0,3.4-0.2,4.7-0.9
		c1.8,0.5,3.3,1,4.8,1c1.9,0,3.6-0.4,5.1-1.4c0.1,0.7,0.6,1.1,1.6,1.1C50.5,153.1,52.4,151.5,53.7,150.3L53.7,150.3z M37,152.3
		c-1.2,0.5-2.7,0.8-4.3,0.8c-1.9,0-3-0.3-3.1-0.9c-0.1-0.8,1.8-0.8,2.3-0.8C33.6,151.4,35.2,151.7,37,152.3L37,152.3z M45.3,142.1
		c1-2.4,2.6-5,4.9-6.2c1.1-0.7,4.1-1.2,4.3,0.4C55,139.9,47.4,141.5,45.3,142.1L45.3,142.1z"/>
	<path fill="#A50165" d="M50.9,145c0.5,0,0.8-0.4,0.8-0.8s-0.4-0.8-0.8-0.8c-0.5,0-0.8,0.4-0.8,0.8S50.5,145,50.9,145L50.9,145z"/>
</g>
</svg>
